<mxfile host="app.diagrams.net" modified="2020-04-23T12:23:53.488Z" agent="5.0 (Windows NT 6.1; Win64; x64) AppleWebKit/537.36 (KHTML, like Gecko) Chrome/81.0.4044.113 Safari/537.36" etag="kqtIF7DJRprqQPbTnEKt" version="13.0.1" type="github">
  <diagram id="tqdO_gt39iN2YjfOuPq4" name="Page-1">
    <mxGraphModel dx="2288" dy="676" grid="1" gridSize="10" guides="1" tooltips="1" connect="1" arrows="1" fold="1" page="1" pageScale="1" pageWidth="827" pageHeight="1169" math="0" shadow="0">
      <root>
        <mxCell id="0" />
        <mxCell id="1" parent="0" />
        <mxCell id="baPiKCOH40HusZpdo7xa-7" style="edgeStyle=none;rounded=0;orthogonalLoop=1;jettySize=auto;html=1;exitX=0.5;exitY=0;exitDx=0;exitDy=0;entryX=0.5;entryY=1;entryDx=0;entryDy=0;" parent="1" source="baPiKCOH40HusZpdo7xa-1" target="baPiKCOH40HusZpdo7xa-6" edge="1">
          <mxGeometry relative="1" as="geometry" />
        </mxCell>
        <mxCell id="baPiKCOH40HusZpdo7xa-14" style="edgeStyle=none;rounded=0;orthogonalLoop=1;jettySize=auto;html=1;exitX=0.5;exitY=0;exitDx=0;exitDy=0;entryX=0.5;entryY=1;entryDx=0;entryDy=0;" parent="1" source="baPiKCOH40HusZpdo7xa-1" target="baPiKCOH40HusZpdo7xa-9" edge="1">
          <mxGeometry relative="1" as="geometry" />
        </mxCell>
        <mxCell id="baPiKCOH40HusZpdo7xa-15" style="edgeStyle=none;rounded=0;orthogonalLoop=1;jettySize=auto;html=1;exitX=0.5;exitY=0;exitDx=0;exitDy=0;entryX=0.5;entryY=1;entryDx=0;entryDy=0;" parent="1" source="baPiKCOH40HusZpdo7xa-1" target="baPiKCOH40HusZpdo7xa-11" edge="1">
          <mxGeometry relative="1" as="geometry" />
        </mxCell>
        <mxCell id="baPiKCOH40HusZpdo7xa-16" style="edgeStyle=none;rounded=0;orthogonalLoop=1;jettySize=auto;html=1;exitX=0.5;exitY=0;exitDx=0;exitDy=0;entryX=0.5;entryY=1;entryDx=0;entryDy=0;" parent="1" source="baPiKCOH40HusZpdo7xa-1" target="baPiKCOH40HusZpdo7xa-12" edge="1">
          <mxGeometry relative="1" as="geometry" />
        </mxCell>
        <mxCell id="baPiKCOH40HusZpdo7xa-18" style="edgeStyle=none;rounded=0;orthogonalLoop=1;jettySize=auto;html=1;exitX=0;exitY=0.5;exitDx=0;exitDy=0;entryX=1;entryY=0.5;entryDx=0;entryDy=0;" parent="1" source="baPiKCOH40HusZpdo7xa-1" target="baPiKCOH40HusZpdo7xa-24" edge="1">
          <mxGeometry relative="1" as="geometry">
            <mxPoint x="-160" y="245" as="targetPoint" />
          </mxGeometry>
        </mxCell>
        <mxCell id="baPiKCOH40HusZpdo7xa-25" style="edgeStyle=none;rounded=0;orthogonalLoop=1;jettySize=auto;html=1;exitX=0.5;exitY=1;exitDx=0;exitDy=0;entryX=0.457;entryY=0.033;entryDx=0;entryDy=0;entryPerimeter=0;" parent="1" source="baPiKCOH40HusZpdo7xa-1" target="baPiKCOH40HusZpdo7xa-20" edge="1">
          <mxGeometry relative="1" as="geometry" />
        </mxCell>
        <mxCell id="baPiKCOH40HusZpdo7xa-27" style="edgeStyle=none;rounded=0;orthogonalLoop=1;jettySize=auto;html=1;exitX=0.5;exitY=1;exitDx=0;exitDy=0;entryX=0.5;entryY=0;entryDx=0;entryDy=0;" parent="1" source="baPiKCOH40HusZpdo7xa-1" target="baPiKCOH40HusZpdo7xa-26" edge="1">
          <mxGeometry relative="1" as="geometry" />
        </mxCell>
        <mxCell id="baPiKCOH40HusZpdo7xa-32" style="edgeStyle=none;rounded=0;orthogonalLoop=1;jettySize=auto;html=1;exitX=1;exitY=0.5;exitDx=0;exitDy=0;entryX=0;entryY=0.5;entryDx=0;entryDy=0;" parent="1" source="baPiKCOH40HusZpdo7xa-1" target="baPiKCOH40HusZpdo7xa-28" edge="1">
          <mxGeometry relative="1" as="geometry" />
        </mxCell>
        <mxCell id="baPiKCOH40HusZpdo7xa-34" style="edgeStyle=none;rounded=0;orthogonalLoop=1;jettySize=auto;html=1;exitX=1;exitY=0.5;exitDx=0;exitDy=0;entryX=0;entryY=0.5;entryDx=0;entryDy=0;" parent="1" source="baPiKCOH40HusZpdo7xa-1" target="baPiKCOH40HusZpdo7xa-30" edge="1">
          <mxGeometry relative="1" as="geometry" />
        </mxCell>
        <mxCell id="cvqTNHz6OLDybXuR_CQE-4" style="edgeStyle=none;rounded=0;orthogonalLoop=1;jettySize=auto;html=1;exitX=0;exitY=0.5;exitDx=0;exitDy=0;" edge="1" parent="1" source="baPiKCOH40HusZpdo7xa-1" target="cvqTNHz6OLDybXuR_CQE-3">
          <mxGeometry relative="1" as="geometry" />
        </mxCell>
        <mxCell id="cvqTNHz6OLDybXuR_CQE-6" style="edgeStyle=none;rounded=0;orthogonalLoop=1;jettySize=auto;html=1;exitX=0;exitY=0.5;exitDx=0;exitDy=0;entryX=1;entryY=0;entryDx=0;entryDy=0;" edge="1" parent="1" source="baPiKCOH40HusZpdo7xa-1" target="cvqTNHz6OLDybXuR_CQE-5">
          <mxGeometry relative="1" as="geometry" />
        </mxCell>
        <mxCell id="cvqTNHz6OLDybXuR_CQE-7" style="edgeStyle=none;rounded=0;orthogonalLoop=1;jettySize=auto;html=1;exitX=1;exitY=0.5;exitDx=0;exitDy=0;entryX=0;entryY=0.5;entryDx=0;entryDy=0;" edge="1" parent="1" source="baPiKCOH40HusZpdo7xa-1" target="baPiKCOH40HusZpdo7xa-36">
          <mxGeometry relative="1" as="geometry" />
        </mxCell>
        <mxCell id="baPiKCOH40HusZpdo7xa-1" value="&lt;font&gt;&lt;font style=&quot;font-size: 24px&quot; color=&quot;#00cccc&quot;&gt;room&lt;br&gt;（房间）&lt;/font&gt;&lt;br&gt;&lt;/font&gt;" style="ellipse;whiteSpace=wrap;html=1;aspect=fixed;" parent="1" vertex="1">
          <mxGeometry x="-20" y="160" width="100" height="100" as="geometry" />
        </mxCell>
        <mxCell id="baPiKCOH40HusZpdo7xa-6" value="&lt;font style=&quot;font-size: 18px&quot;&gt;title&lt;br&gt;（标题）&lt;/font&gt;" style="rounded=0;whiteSpace=wrap;html=1;" parent="1" vertex="1">
          <mxGeometry x="-195" y="28.75" width="95" height="50" as="geometry" />
        </mxCell>
        <mxCell id="baPiKCOH40HusZpdo7xa-9" value="&lt;font style=&quot;font-size: 18px&quot;&gt;subtitle&lt;br&gt;（副标题）&lt;/font&gt;" style="rounded=0;whiteSpace=wrap;html=1;" parent="1" vertex="1">
          <mxGeometry x="-90" y="27.5" width="100" height="50" as="geometry" />
        </mxCell>
        <mxCell id="baPiKCOH40HusZpdo7xa-11" value="&lt;font style=&quot;font-size: 18px&quot;&gt;announcement&lt;br&gt;（公告）&lt;/font&gt;" style="rounded=0;whiteSpace=wrap;html=1;" parent="1" vertex="1">
          <mxGeometry x="20" y="25" width="140" height="50" as="geometry" />
        </mxCell>
        <mxCell id="baPiKCOH40HusZpdo7xa-12" value="&lt;font style=&quot;font-size: 18px&quot;&gt;tips&lt;br&gt;（提示）&lt;/font&gt;" style="rounded=0;whiteSpace=wrap;html=1;" parent="1" vertex="1">
          <mxGeometry x="170" y="26.25" width="90" height="52.5" as="geometry" />
        </mxCell>
        <mxCell id="baPiKCOH40HusZpdo7xa-20" value="&lt;font&gt;&lt;font style=&quot;font-size: 18px&quot;&gt;announcement_at&lt;br&gt;（最近公告时间）&lt;/font&gt;&lt;br&gt;&lt;/font&gt;" style="rounded=1;whiteSpace=wrap;html=1;" parent="1" vertex="1">
          <mxGeometry x="-150" y="560" width="180" height="40" as="geometry" />
        </mxCell>
        <mxCell id="baPiKCOH40HusZpdo7xa-21" value="&lt;font style=&quot;font-size: 18px&quot;&gt;uid&lt;br&gt;(房主id)&lt;/font&gt;" style="rhombus;whiteSpace=wrap;html=1;" parent="1" vertex="1">
          <mxGeometry x="-655" y="210" width="150" height="110" as="geometry" />
        </mxCell>
        <mxCell id="baPiKCOH40HusZpdo7xa-24" value="&lt;font style=&quot;font-size: 18px&quot;&gt;id&lt;br&gt;(房间id)&lt;/font&gt;" style="rhombus;whiteSpace=wrap;html=1;" parent="1" vertex="1">
          <mxGeometry x="-580" y="155" width="135" height="100" as="geometry" />
        </mxCell>
        <mxCell id="baPiKCOH40HusZpdo7xa-26" value="&lt;font&gt;&lt;font style=&quot;font-size: 18px&quot;&gt;announcement_at&lt;br&gt;（最近公告时间）&lt;/font&gt;&lt;br&gt;&lt;/font&gt;" style="rounded=1;whiteSpace=wrap;html=1;" parent="1" vertex="1">
          <mxGeometry x="50" y="560" width="170" height="40" as="geometry" />
        </mxCell>
        <mxCell id="baPiKCOH40HusZpdo7xa-28" value="&lt;font style=&quot;font-size: 18px&quot;&gt;online_male_count&lt;br&gt;（在线男用户数量）&lt;/font&gt;" style="shape=hexagon;perimeter=hexagonPerimeter2;whiteSpace=wrap;html=1;" parent="1" vertex="1">
          <mxGeometry x="450" y="120" width="190" height="90" as="geometry" />
        </mxCell>
        <mxCell id="baPiKCOH40HusZpdo7xa-29" value="&lt;font style=&quot;font-size: 18px&quot;&gt;online_female_count&lt;br&gt;（在线女用户数量）&lt;/font&gt;" style="shape=hexagon;perimeter=hexagonPerimeter2;whiteSpace=wrap;html=1;" parent="1" vertex="1">
          <mxGeometry x="640" y="115" width="190" height="100" as="geometry" />
        </mxCell>
        <mxCell id="baPiKCOH40HusZpdo7xa-30" value="&lt;font style=&quot;font-size: 18px&quot;&gt;applying_male_count&lt;br&gt;（排麦男用户数量）&lt;/font&gt;" style="shape=hexagon;perimeter=hexagonPerimeter2;whiteSpace=wrap;html=1;" parent="1" vertex="1">
          <mxGeometry x="435" y="220" width="220" height="90" as="geometry" />
        </mxCell>
        <mxCell id="baPiKCOH40HusZpdo7xa-31" value="&lt;font style=&quot;font-size: 18px&quot;&gt;applying_female_count&lt;br&gt;（排麦女用户数量）&lt;/font&gt;" style="shape=hexagon;perimeter=hexagonPerimeter2;whiteSpace=wrap;html=1;" parent="1" vertex="1">
          <mxGeometry x="660" y="225" width="230" height="80" as="geometry" />
        </mxCell>
        <mxCell id="baPiKCOH40HusZpdo7xa-36" value="&lt;font style=&quot;font-size: 18px&quot;&gt;male_on_mp_count&lt;br&gt;（麦位上男用户数量）&lt;/font&gt;" style="shape=hexagon;perimeter=hexagonPerimeter2;whiteSpace=wrap;html=1;" parent="1" vertex="1">
          <mxGeometry x="440" y="320" width="220" height="90" as="geometry" />
        </mxCell>
        <mxCell id="baPiKCOH40HusZpdo7xa-37" value="&lt;font style=&quot;font-size: 18px&quot;&gt;female_on_mp_count&lt;br&gt;（麦位上女用户数量）&lt;/font&gt;" style="shape=hexagon;perimeter=hexagonPerimeter2;whiteSpace=wrap;html=1;" parent="1" vertex="1">
          <mxGeometry x="660" y="325" width="230" height="80" as="geometry" />
        </mxCell>
        <mxCell id="cvqTNHz6OLDybXuR_CQE-1" value="&lt;font&gt;&lt;font style=&quot;font-size: 18px&quot;&gt;last_male_auto_invite_at&lt;br&gt;（上次男用户自动邀请时间）&lt;/font&gt;&lt;br&gt;&lt;/font&gt;" style="rounded=1;whiteSpace=wrap;html=1;" vertex="1" parent="1">
          <mxGeometry x="-210" y="610" width="240" height="40" as="geometry" />
        </mxCell>
        <mxCell id="cvqTNHz6OLDybXuR_CQE-2" value="&lt;font&gt;&lt;font style=&quot;font-size: 18px&quot;&gt;last_female_auto_invite_at&lt;br&gt;（上次女用户自动邀请时间）&lt;/font&gt;&lt;br&gt;&lt;/font&gt;" style="rounded=1;whiteSpace=wrap;html=1;" vertex="1" parent="1">
          <mxGeometry x="50" y="610" width="240" height="40" as="geometry" />
        </mxCell>
        <mxCell id="cvqTNHz6OLDybXuR_CQE-3" value="&lt;font style=&quot;font-size: 18px&quot;&gt;match&lt;br&gt;(游戏id)&lt;/font&gt;" style="rhombus;whiteSpace=wrap;html=1;" vertex="1" parent="1">
          <mxGeometry x="-580" y="270" width="150" height="110" as="geometry" />
        </mxCell>
        <mxCell id="cvqTNHz6OLDybXuR_CQE-5" value="&lt;font style=&quot;font-size: 18px&quot;&gt;play_id&lt;br&gt;(场次id)&lt;/font&gt;" style="rhombus;whiteSpace=wrap;html=1;" vertex="1" parent="1">
          <mxGeometry x="-575" y="380" width="140" height="100" as="geometry" />
        </mxCell>
        <mxCell id="cvqTNHz6OLDybXuR_CQE-9" value="&lt;span style=&quot;font-size: 18px&quot;&gt;play_count&lt;br&gt;（房间总场次）&lt;/span&gt;" style="shape=hexagon;perimeter=hexagonPerimeter2;whiteSpace=wrap;html=1;" vertex="1" parent="1">
          <mxGeometry x="450" y="430" width="190" height="90" as="geometry" />
        </mxCell>
        <mxCell id="cvqTNHz6OLDybXuR_CQE-10" value="&lt;font&gt;&lt;font style=&quot;font-size: 18px&quot;&gt;play_at&lt;br&gt;（最近场次开播时间）&lt;/font&gt;&lt;br&gt;&lt;/font&gt;" style="rounded=1;whiteSpace=wrap;html=1;" vertex="1" parent="1">
          <mxGeometry x="-160" y="660" width="190" height="40" as="geometry" />
        </mxCell>
        <mxCell id="cvqTNHz6OLDybXuR_CQE-11" value="&lt;font&gt;&lt;font&gt;&lt;span style=&quot;font-size: 18px&quot;&gt;close_at&lt;br&gt;（场次关闭时间）&lt;/span&gt;&lt;/font&gt;&lt;br&gt;&lt;/font&gt;" style="rounded=1;whiteSpace=wrap;html=1;" vertex="1" parent="1">
          <mxGeometry x="50" y="660" width="150" height="40" as="geometry" />
        </mxCell>
        <mxCell id="cvqTNHz6OLDybXuR_CQE-13" value="&lt;span style=&quot;font-size: 18px&quot;&gt;mode&lt;br&gt;（房间模式）&lt;/span&gt;" style="rhombus;whiteSpace=wrap;html=1;" vertex="1" parent="1">
          <mxGeometry x="-180" y="270" width="150" height="100" as="geometry" />
        </mxCell>
        <mxCell id="cvqTNHz6OLDybXuR_CQE-14" value="&lt;span style=&quot;font-size: 18px&quot;&gt;is_male_auto_invite&lt;/span&gt;&lt;br&gt;&lt;span style=&quot;font-size: 18px&quot;&gt;（是否开启男用户自动邀请）&lt;/span&gt;" style="rhombus;whiteSpace=wrap;html=1;" vertex="1" parent="1">
          <mxGeometry x="100" y="125" width="260" height="100" as="geometry" />
        </mxCell>
        <mxCell id="cvqTNHz6OLDybXuR_CQE-20" value="&lt;span style=&quot;font-size: 18px&quot;&gt;is_female_auto_invite&lt;/span&gt;&lt;br&gt;&lt;span style=&quot;font-size: 18px&quot;&gt;（是否开启女用户自动邀请）&lt;/span&gt;" style="rhombus;whiteSpace=wrap;html=1;" vertex="1" parent="1">
          <mxGeometry x="100" y="240" width="260" height="100" as="geometry" />
        </mxCell>
        <mxCell id="cvqTNHz6OLDybXuR_CQE-21" value="&lt;span style=&quot;font-size: 18px&quot;&gt;is_close&lt;/span&gt;&lt;br&gt;&lt;span style=&quot;font-size: 18px&quot;&gt;（房间是否关闭&lt;/span&gt;&lt;span style=&quot;font-size: 18px&quot;&gt;）&lt;/span&gt;" style="rhombus;whiteSpace=wrap;html=1;" vertex="1" parent="1">
          <mxGeometry x="-290" y="340" width="190" height="100" as="geometry" />
        </mxCell>
        <mxCell id="cvqTNHz6OLDybXuR_CQE-22" value="&lt;font&gt;&lt;font style=&quot;font-size: 18px&quot;&gt;last_heartbeat_at&lt;br&gt;（团长最后心跳时间）&lt;/font&gt;&lt;br&gt;&lt;/font&gt;" style="rounded=1;whiteSpace=wrap;html=1;" vertex="1" parent="1">
          <mxGeometry x="-160" y="710" width="190" height="40" as="geometry" />
        </mxCell>
        <mxCell id="cvqTNHz6OLDybXuR_CQE-23" value="&lt;font&gt;&lt;font&gt;&lt;span style=&quot;font-size: 18px&quot;&gt;ban_until&lt;/span&gt;&lt;br&gt;&lt;span style=&quot;font-size: 18px&quot;&gt;（禁播至）&lt;/span&gt;&lt;/font&gt;&lt;br&gt;&lt;/font&gt;" style="rounded=1;whiteSpace=wrap;html=1;" vertex="1" parent="1">
          <mxGeometry x="-70" y="760" width="100" height="40" as="geometry" />
        </mxCell>
        <mxCell id="cvqTNHz6OLDybXuR_CQE-24" value="&lt;font&gt;&lt;font&gt;&lt;span style=&quot;font-size: 18px&quot;&gt;create_at&lt;br&gt;（创建时间）&lt;/span&gt;&lt;/font&gt;&lt;br&gt;&lt;/font&gt;" style="rounded=1;whiteSpace=wrap;html=1;" vertex="1" parent="1">
          <mxGeometry x="50" y="710" width="110" height="40" as="geometry" />
        </mxCell>
        <mxCell id="cvqTNHz6OLDybXuR_CQE-25" value="&lt;font&gt;&lt;font&gt;&lt;span style=&quot;font-size: 18px&quot;&gt;update_at&lt;br&gt;（更新时间）&lt;/span&gt;&lt;/font&gt;&lt;br&gt;&lt;/font&gt;" style="rounded=1;whiteSpace=wrap;html=1;" vertex="1" parent="1">
          <mxGeometry x="50" y="760" width="110" height="40" as="geometry" />
        </mxCell>
        <mxCell id="cvqTNHz6OLDybXuR_CQE-26" value="&lt;font&gt;&lt;font&gt;&lt;span style=&quot;font-size: 18px&quot;&gt;mode_changed_at&lt;/span&gt;&lt;br&gt;&lt;span style=&quot;font-size: 18px&quot;&gt;（模式切换时间）&lt;/span&gt;&lt;/font&gt;&lt;br&gt;&lt;/font&gt;" style="rounded=1;whiteSpace=wrap;html=1;" vertex="1" parent="1">
          <mxGeometry x="-130" y="810" width="160" height="40" as="geometry" />
        </mxCell>
        <mxCell id="cvqTNHz6OLDybXuR_CQE-27" value="&lt;font style=&quot;font-size: 18px&quot;&gt;mode_id&lt;br&gt;(模式ID)&lt;/font&gt;" style="rhombus;whiteSpace=wrap;html=1;" vertex="1" parent="1">
          <mxGeometry x="-650" y="330" width="140" height="100" as="geometry" />
        </mxCell>
      </root>
    </mxGraphModel>
  </diagram>
</mxfile>
